<svg width="30" height="30" viewBox="0 0 30 30" fill="none" xmlns="http://www.w3.org/2000/svg">
<mask id="mask0_21_157" style="mask-type:alpha" maskUnits="userSpaceOnUse" x="0" y="0" width="30" height="30">
<rect width="30" height="30" fill="#D9D9D9"/>
</mask>
<g mask="url(#mask0_21_157)">
<path d="M22.8047 8.35131C22.7989 8.34 22.7892 8.33114 22.7775 8.32631C21.4159 7.70162 19.9791 7.25616 18.5029 7.00109C18.4895 6.9986 18.4757 7.0004 18.4633 7.00623C18.451 7.01207 18.4408 7.02164 18.4343 7.03359C18.2386 7.3887 18.061 7.75345 17.9021 8.12645C16.3109 7.88491 14.6924 7.88491 13.1012 8.12645C12.9412 7.7525 12.7608 7.38766 12.5606 7.03359C12.5538 7.0219 12.5435 7.01255 12.5313 7.00675C12.519 7.00095 12.5053 6.99898 12.4919 7.00109C11.0156 7.25563 9.5787 7.70112 8.21733 8.32635C8.20567 8.33129 8.19584 8.33972 8.18918 8.35049C5.46671 12.4161 4.72092 16.3818 5.08678 20.2984C5.08781 20.308 5.09076 20.3173 5.09545 20.3257C5.10015 20.3342 5.10649 20.3416 5.1141 20.3475C6.69937 21.5213 8.47252 22.4172 10.3579 22.9971C10.3711 23.0011 10.3853 23.0009 10.3985 22.9966C10.4117 22.9923 10.4232 22.9841 10.4315 22.973C10.8365 22.422 11.1953 21.8386 11.5043 21.2286C11.5085 21.2203 11.511 21.2111 11.5114 21.2017C11.5119 21.1923 11.5103 21.183 11.5069 21.1742C11.5034 21.1655 11.4982 21.1576 11.4915 21.151C11.4848 21.1445 11.4767 21.1394 11.4679 21.1362C10.9021 20.9197 10.3543 20.6587 9.82976 20.3557C9.82023 20.3501 9.81223 20.3423 9.80646 20.3328C9.80069 20.3234 9.79733 20.3127 9.79668 20.3017C9.79602 20.2906 9.7981 20.2796 9.80271 20.2696C9.80733 20.2595 9.81435 20.2508 9.82315 20.2441C9.93354 20.1616 10.042 20.0767 10.1485 19.9892C10.1578 19.9815 10.1691 19.9766 10.1811 19.975C10.1931 19.9733 10.2053 19.9751 10.2163 19.9801C13.6531 21.5485 17.3739 21.5485 20.7699 19.9801C20.781 19.9748 20.7933 19.9728 20.8055 19.9743C20.8177 19.9757 20.8292 19.9806 20.8387 19.9884C20.9452 20.0763 21.054 20.1616 21.1648 20.2441C21.1737 20.2507 21.1807 20.2594 21.1854 20.2694C21.1901 20.2794 21.1923 20.2904 21.1917 20.3015C21.1911 20.3125 21.1878 20.3232 21.1821 20.3327C21.1764 20.3422 21.1685 20.3501 21.159 20.3557C20.6356 20.6613 20.0874 20.9221 19.5201 21.1354C19.5113 21.1387 19.5033 21.1439 19.4966 21.1506C19.4899 21.1572 19.4847 21.1652 19.4814 21.174C19.478 21.1828 19.4765 21.1922 19.477 21.2016C19.4776 21.2111 19.4801 21.2203 19.4844 21.2286C19.7986 21.8352 20.1568 22.4179 20.5563 22.972C20.5644 22.9834 20.5759 22.9919 20.5891 22.9964C20.6023 23.0009 20.6166 23.0011 20.63 22.997C22.5187 22.4191 24.295 21.5231 25.8822 20.3475C25.8899 20.3419 25.8964 20.3347 25.9011 20.3263C25.9058 20.318 25.9087 20.3088 25.9095 20.2992C26.3475 15.7713 25.1762 11.8381 22.8047 8.35131ZM12.0176 17.9136C10.9828 17.9136 10.1303 16.9641 10.1303 15.7979C10.1303 14.6318 10.9663 13.6822 12.0176 13.6822C13.077 13.6822 13.9213 14.64 13.9048 15.7979C13.9048 16.9641 13.0687 17.9136 12.0176 17.9136ZM18.9954 17.9136C17.9608 17.9136 17.1082 16.9641 17.1082 15.7979C17.1082 14.6318 17.9442 13.6822 18.9954 13.6822C20.055 13.6822 20.8993 14.64 20.8827 15.7979C20.8827 16.9641 20.055 17.9136 18.9954 17.9136Z" fill="#6673FF"/>
</g>
</svg>
