<svg width="30" height="30" viewBox="0 0 30 30" fill="none" xmlns="http://www.w3.org/2000/svg">
<mask id="mask0_21_151" style="mask-type:alpha" maskUnits="userSpaceOnUse" x="0" y="0" width="30" height="30">
<rect width="30" height="30" fill="#D9D9D9"/>
</mask>
<g mask="url(#mask0_21_151)">
<path fill-rule="evenodd" clip-rule="evenodd" d="M16.6164 6.94607L25.0911 11.2695C25.4827 11.4693 25.4888 12.0373 25.1016 12.2458L14.0949 18.1729C13.4812 18.5033 12.749 18.5115 12.1283 18.1949L5.21772 14.6694C4.37582 14.3243 3.43448 14.9546 3.43448 15.9039C3.43448 16.6672 3.85713 17.365 4.52623 17.7063L11.4547 21.2409C11.8776 20.8015 12.4665 20.529 13.1178 20.529C13.7505 20.529 14.3243 20.7861 14.7443 21.2036L23.3739 16.5566C23.3503 16.4207 23.338 16.2808 23.338 16.138C23.338 14.8245 24.3816 13.7597 25.669 13.7597C26.9564 13.7597 28 14.8245 28 16.138C28 17.4516 26.9564 18.5164 25.669 18.5164C25.0395 18.5164 24.4683 18.2618 24.0488 17.8481L15.4144 22.4977C15.437 22.6308 15.4488 22.7677 15.4488 22.9073C15.4488 24.2209 14.4052 25.2857 13.1178 25.2857C11.8304 25.2857 10.7868 24.2209 10.7868 22.9073C10.7868 22.7859 10.7957 22.6665 10.813 22.5499L3.78416 18.9641C2.69071 18.4063 2 17.266 2 16.0187V15.3239C2 14.3739 2.5153 13.502 3.33873 13.0586L14.6498 6.96812C15.2635 6.63764 15.9957 6.62943 16.6164 6.94607ZM13.1178 23.8221C13.613 23.8221 14.0144 23.4125 14.0144 22.9073C14.0144 22.4021 13.613 21.9926 13.1178 21.9926C12.6227 21.9926 12.2213 22.4021 12.2213 22.9073C12.2213 23.4125 12.6227 23.8221 13.1178 23.8221ZM26.5655 16.138C26.5655 16.6433 26.1641 17.0528 25.669 17.0528C25.1738 17.0528 24.7724 16.6433 24.7724 16.138C24.7724 15.6328 25.1738 15.2233 25.669 15.2233C26.1641 15.2233 26.5655 15.6328 26.5655 16.138Z" fill="#6673FF"/>
</g>
</svg>
