<svg width="30" height="30" viewBox="0 0 30 30" fill="none" xmlns="http://www.w3.org/2000/svg">
<mask id="mask0_21_148" style="mask-type:alpha" maskUnits="userSpaceOnUse" x="0" y="0" width="30" height="30">
<rect width="30" height="30" fill="#D9D9D9"/>
</mask>
<g mask="url(#mask0_21_148)">
<path d="M22.7766 8.26028C23.5309 6.84779 22.6688 5 22.6688 5C20.7289 5 19.3273 6.30384 19.3273 6.30384C18.5729 5.86923 16.0935 5.86923 16.0935 5.86923C16.0935 5.86923 13.6142 5.86923 12.8598 6.30384C12.8598 6.30384 11.4588 5 9.51828 5C9.51828 5 8.65613 6.8471 9.41051 8.26028C9.41051 8.26028 7.68621 9.89007 8.33282 13.3677C8.9408 16.6355 11.7821 17.4972 13.6142 17.4972C13.6142 17.4972 12.8598 18.1491 12.9676 19.2356C12.9676 19.2356 11.8899 19.8875 10.8122 19.4529C9.73449 19.0183 9.19565 17.9318 9.19565 17.9318C9.19565 17.9318 8.11796 16.5193 7.04027 17.0625C7.04027 17.0625 6.71697 17.3885 7.90242 17.9318C7.90242 17.9318 8.76457 19.2356 9.08788 19.9962C9.41119 20.7568 11.1355 21.4087 12.8605 20.9741V23.4731C12.8605 23.4731 12.8605 23.6904 12.4294 23.799C11.9983 23.9077 11.9983 24.125 12.2139 24.125H19.9746C20.1901 24.125 20.1901 23.9077 19.759 23.799C19.3279 23.6904 19.3279 23.4731 19.3279 23.4731V20.9741C19.3279 20.9741 19.3374 19.6709 19.3279 19.2356C19.3042 18.1436 18.5736 17.4972 18.5736 17.4972C20.4056 17.4972 23.2469 16.6355 23.8549 13.3677C24.5015 9.89007 22.7772 8.26028 22.7772 8.26028H22.7766Z" fill="#6673FF"/>
</g>
</svg>
