<svg width="30" height="30" viewBox="0 0 30 30" fill="none" xmlns="http://www.w3.org/2000/svg">
<mask id="mask0_21_145" style="mask-type:alpha" maskUnits="userSpaceOnUse" x="0" y="0" width="30" height="30">
<rect width="30" height="30" fill="#C4C4C4"/>
</mask>
<g mask="url(#mask0_21_145)">
<path d="M23.4036 8.99771L25 7.35892V7H19.4714L15.5312 17.5283L11.0495 7H5.2526V7.35892L7.11719 9.76841C7.29948 9.94648 7.39323 10.208 7.36979 10.4696V19.9378C7.42708 20.28 7.32552 20.6278 7.10156 20.8754L5 23.6105V23.9638H10.9531V23.6049L8.85417 20.8782C8.62621 20.631 8.51931 20.2842 8.5651 19.9406V11.7494L13.7917 23.9694H14.3984L18.8932 11.7494V21.4848C18.8932 21.7408 18.8932 21.7936 18.737 21.9633L17.1198 23.6411V24H24.9635V23.6411L23.4036 22.0023C23.2682 21.891 23.1979 21.7046 23.2266 21.5237V9.47627C23.1991 9.29414 23.267 9.11053 23.4036 8.99771Z" fill="#6673FF"/>
</g>
</svg>
