<svg width="30" height="30" viewBox="0 0 30 30" fill="none" xmlns="http://www.w3.org/2000/svg">
<path d="M24.9967 9.36933C24.4021 10.2401 23.6824 10.982 22.8376 11.5947C22.8467 11.7187 22.8513 11.9052 22.8513 12.1542C22.8513 13.3092 22.6824 14.4614 22.3448 15.6108C22.0071 16.7603 21.4943 17.8636 20.8066 18.9209C20.1187 19.9782 19.2995 20.9133 18.3491 21.7261C17.3986 22.539 16.2526 23.1876 14.9111 23.6719C13.5695 24.1562 12.1353 24.3985 10.6083 24.3985C8.20152 24.3985 5.99869 23.7543 4 22.4663C4.31034 22.5015 4.65655 22.5191 5.03863 22.5191C7.03732 22.5191 8.81833 21.9063 10.3816 20.6808C9.44928 20.6626 8.61421 20.3761 7.87637 19.8213C7.13855 19.2665 6.63203 18.5582 6.35686 17.6965C6.65014 17.7408 6.9213 17.763 7.17028 17.763C7.55236 17.763 7.92976 17.714 8.30272 17.6162C7.30793 17.4117 6.48414 16.9166 5.83158 16.1309C5.17902 15.3454 4.85273 14.433 4.85273 13.3939V13.341C5.45646 13.6786 6.10505 13.8606 6.79858 13.8867C6.21196 13.4957 5.74571 12.9852 5.4001 12.3553C5.05447 11.7255 4.88105 11.0417 4.88003 10.3039C4.88003 9.52167 5.07549 8.79806 5.46668 8.13298C6.54109 9.45628 7.84903 10.5153 9.39075 11.31C10.9323 12.1047 12.5821 12.5464 14.3398 12.635C14.2693 12.2974 14.234 11.9688 14.234 11.6494C14.234 10.4591 14.6535 9.44435 15.4926 8.60533C16.3316 7.7663 17.3463 7.3468 18.5367 7.3468C19.7805 7.3468 20.8287 7.79991 21.6814 8.70594C22.6501 8.51948 23.5608 8.17329 24.4133 7.66738C24.0848 8.68831 23.4544 9.47908 22.5221 10.0395C23.3487 9.95082 24.1746 9.72863 25 9.37274L24.9967 9.36933Z" fill="#6673FF"/>
</svg>
