<svg width="341" height="44" viewBox="0 0 341 44" fill="none" xmlns="http://www.w3.org/2000/svg">
<g opacity="0.5">
<path d="M200.28 12.903V14.415L193.247 25.881H200.321V27.54H191V26.028L198.033 14.562H191.083V12.903H200.28Z" fill="white"/>
<path d="M207.23 25.356L210.767 16.032H212.723L205.856 32.958H203.901L206.148 27.414L201.549 16.032H203.651L207.23 25.356Z" fill="white"/>
<path d="M216.519 18.153C217.206 16.935 218.704 15.843 220.785 15.843C223.843 15.843 226.195 18.153 226.195 21.744C226.195 25.314 223.843 27.729 220.785 27.729C218.704 27.729 217.227 26.595 216.519 25.419V33H214.626V16.032H216.519V18.153ZM224.26 21.744C224.26 19.035 222.491 17.502 220.389 17.502C218.33 17.502 216.519 19.098 216.519 21.765C216.519 24.474 218.33 26.049 220.389 26.049C222.491 26.049 224.26 24.453 224.26 21.744Z" fill="white"/>
<path d="M228.687 27.54V12H230.58V17.691C231.329 16.473 232.744 15.822 234.346 15.822C236.885 15.822 238.903 17.46 238.903 20.757V27.54H237.03V21.03C237.03 18.678 235.761 17.481 233.847 17.481C231.912 17.481 230.58 18.699 230.58 21.177V27.54H228.687Z" fill="white"/>
<path d="M246.844 17.46C244.992 17.46 243.452 18.699 243.244 20.946H250.443C250.464 18.699 248.8 17.46 246.844 17.46ZM252.17 23.991C251.588 26.091 249.757 27.729 246.927 27.729C243.681 27.729 241.288 25.419 241.288 21.765C241.288 18.132 243.598 15.843 246.927 15.843C250.235 15.843 252.399 18.195 252.399 21.345C252.399 21.765 252.378 22.101 252.337 22.5H243.223C243.369 24.831 244.992 26.112 246.927 26.112C248.633 26.112 249.715 25.23 250.131 23.991H252.17Z" fill="white"/>
<path d="M256.792 21.282V27.54H254.899V16.032H256.792V17.901C257.437 16.62 258.665 15.822 260.475 15.822V17.796H259.975C258.165 17.796 256.792 18.615 256.792 21.282Z" fill="white"/>
<path d="M274.783 12.735C277.841 12.735 280.38 14.331 281.461 17.145H279.194C278.403 15.444 276.822 14.457 274.783 14.457C271.724 14.457 269.435 16.683 269.435 20.211C269.435 23.718 271.724 25.944 274.783 25.944C277.633 25.944 279.589 24.096 279.88 21.198H274.096V19.644H281.898V21.114C281.566 24.747 278.715 27.666 274.783 27.666C270.704 27.666 267.5 24.6 267.5 20.211C267.5 15.822 270.704 12.735 274.783 12.735Z" fill="white"/>
<path d="M283.694 21.744C283.694 18.153 286.046 15.843 289.104 15.843C291.227 15.843 292.683 16.935 293.349 18.132V16.032H295.263V27.54H293.349V25.398C292.662 26.637 291.185 27.729 289.083 27.729C286.046 27.729 283.694 25.314 283.694 21.744ZM293.349 21.765C293.349 19.098 291.559 17.502 289.479 17.502C287.398 17.502 285.63 19.035 285.63 21.744C285.63 24.453 287.398 26.049 289.479 26.049C291.559 26.049 293.349 24.474 293.349 21.765Z" fill="white"/>
<path d="M314.921 27.54V21.03C314.921 18.678 313.673 17.481 311.8 17.481C309.886 17.481 308.575 18.72 308.575 21.198V27.54H306.702V21.03C306.702 18.678 305.454 17.481 303.581 17.481C301.667 17.481 300.356 18.72 300.356 21.198V27.54H298.463V16.032H300.356V17.691C301.105 16.473 302.458 15.822 303.956 15.822C305.828 15.822 307.389 16.662 308.138 18.384C308.804 16.725 310.427 15.822 312.174 15.822C314.775 15.822 316.794 17.46 316.794 20.757V27.54H314.921Z" fill="white"/>
<path d="M324.747 17.46C322.896 17.46 321.356 18.699 321.148 20.946H328.347C328.368 18.699 326.703 17.46 324.747 17.46ZM330.074 23.991C329.491 26.091 327.66 27.729 324.831 27.729C321.585 27.729 319.192 25.419 319.192 21.765C319.192 18.132 321.502 15.843 324.831 15.843C328.139 15.843 330.303 18.195 330.303 21.345C330.303 21.765 330.282 22.101 330.24 22.5H321.127C321.273 24.831 322.896 26.112 324.831 26.112C326.537 26.112 327.619 25.23 328.035 23.991H330.074Z" fill="white"/>
<path d="M341 24.411C341 26.301 339.356 27.729 336.839 27.729C334.175 27.729 332.303 26.259 332.178 24.159H334.134C334.238 25.272 335.216 26.112 336.818 26.112C338.316 26.112 339.148 25.356 339.148 24.411C339.148 21.849 332.407 23.34 332.407 19.056C332.407 17.292 334.051 15.843 336.589 15.843C339.107 15.843 340.771 17.208 340.896 19.455H339.003C338.919 18.3 338.045 17.46 336.527 17.46C335.132 17.46 334.3 18.132 334.3 19.056C334.3 21.786 340.917 20.295 341 24.411Z" fill="white"/>
</g>
<path d="M64.825 12.375C68.5 12.375 71.55 14.275 72.85 17.625H70.125C69.175 15.6 67.275 14.425 64.825 14.425C61.15 14.425 58.4 17.075 58.4 21.275C58.4 25.45 61.15 28.1 64.825 28.1C68.25 28.1 70.6 25.9 70.95 22.45H64V20.6H73.375V22.35C72.975 26.675 69.55 30.15 64.825 30.15C59.925 30.15 56.075 26.5 56.075 21.275C56.075 16.05 59.925 12.375 64.825 12.375ZM87.708 25.25C87.708 27.725 85.683 30.175 81.908 30.175C78.408 30.175 75.933 28.225 75.883 25.35H78.308C78.458 26.8 79.483 28.25 81.908 28.25C84.108 28.25 85.408 27 85.408 25.35C85.408 20.65 75.983 23.65 75.983 17.175C75.983 14.3 78.308 12.35 81.758 12.35C85.083 12.35 87.258 14.175 87.533 16.825H85.033C84.883 15.65 83.783 14.325 81.658 14.3C79.783 14.25 78.308 15.225 78.308 17.1C78.308 21.6 87.708 18.8 87.708 25.25ZM90.2059 21.275C90.2059 16.05 94.0309 12.35 98.9059 12.35C102.681 12.35 105.681 14.25 106.981 17.625H104.256C103.306 15.525 101.456 14.35 98.9059 14.35C95.2559 14.35 92.5309 17 92.5309 21.275C92.5309 25.525 95.2559 28.175 98.9059 28.175C101.456 28.175 103.306 27 104.256 24.925H106.981C105.681 28.275 102.681 30.15 98.9059 30.15C94.0309 30.15 90.2059 26.5 90.2059 21.275ZM117.457 30V18.175H115.682V16.3H117.457V15.325C117.457 12.275 118.957 10.9 122.457 10.9V12.8C120.407 12.8 119.732 13.55 119.732 15.325V16.3H122.607V18.175H119.732V30H117.457ZM138.26 23.125C138.26 27.475 135.135 30.225 131.235 30.225C127.36 30.225 124.41 27.475 124.41 23.125C124.41 18.8 127.46 16.075 131.335 16.075C135.235 16.075 138.26 18.8 138.26 23.125ZM126.735 23.125C126.735 26.6 128.86 28.225 131.235 28.225C133.61 28.225 135.935 26.6 135.935 23.125C135.935 19.675 133.66 18.05 131.31 18.05C128.91 18.05 126.735 19.675 126.735 23.125ZM143.526 22.55V30H141.251V16.3H143.526V18.525C144.301 17 145.776 16.05 147.951 16.05V18.4H147.351C145.176 18.4 143.526 19.375 143.526 22.55Z" fill="white"/>
<g opacity="0.5">
<path d="M168.36 9.09396C168.33 9.07699 168.293 9.07711 168.263 9.09428L164.066 11.5001C164.036 11.5176 164.017 11.55 164.017 11.585V13.869C164.017 13.9041 164.036 13.9365 164.066 13.954L165.995 15.0563C166.061 15.094 166.061 15.1892 165.994 15.2265L164.202 16.2356C164.172 16.2525 164.135 16.2524 164.105 16.2353L162.628 15.3912C162.25 15.1752 162.018 14.78 162.018 14.3527V11.102C162.018 10.6753 162.25 10.2805 162.627 10.0643L167.683 7.16607C168.067 6.9461 168.542 6.94455 168.927 7.16201L180.379 13.6264C180.761 13.8417 180.996 14.2387 180.996 14.6682V20.2668C180.996 20.6942 180.763 21.0896 180.385 21.3056L173.203 25.4053C172.822 25.623 172.351 25.6254 171.967 25.4117L168.651 23.5643C168.584 23.5271 168.584 23.4311 168.651 23.3935L170.455 22.378C170.484 22.3613 170.521 22.3612 170.55 22.3778L172.527 23.4787C172.557 23.4954 172.593 23.4952 172.623 23.4782L178.947 19.8677C178.978 19.8503 178.996 19.8179 178.996 19.7827V15.155C178.996 15.1197 178.977 15.0872 178.947 15.0698L168.36 9.09396Z" fill="white"/>
<path d="M174.577 17.6746C174.644 17.637 174.644 17.541 174.577 17.5038L171.043 15.5372C170.66 15.324 170.189 15.3263 169.808 15.5434L162.612 19.6439C162.233 19.8598 162 20.2554 162 20.6832L162 26.2765C162 26.7047 162.233 27.1006 162.613 27.3163L174.076 33.836C174.459 34.0538 174.933 34.0547 175.317 33.8383L180.383 30.9818C180.765 30.7666 181 30.3694 181 29.9397V26.63C181 26.201 180.766 25.8044 180.385 25.589L178.853 24.7215C178.823 24.7046 178.786 24.7045 178.757 24.7214L176.96 25.7329C176.893 25.7703 176.893 25.8658 176.959 25.9033L178.951 27.031C178.982 27.0483 179.001 27.0809 179.001 27.1161V29.4526C179.001 29.4879 178.982 29.5205 178.951 29.5378L174.748 31.9072C174.719 31.9241 174.682 31.924 174.652 31.907L164.049 25.8766C164.018 25.8592 163.999 25.8267 163.999 25.7916L163.999 21.1677C163.999 21.1326 164.018 21.1001 164.048 21.0827L170.388 17.4706C170.417 17.4537 170.454 17.4535 170.484 17.4701L172.677 18.6907C172.707 18.7072 172.743 18.7071 172.772 18.6904L174.577 17.6746Z" fill="white"/>
</g>
<path d="M9.56919 8.09526C9.59999 8.20993 9.67508 8.30767 9.77793 8.36699C9.88078 8.42631 10.003 8.44236 10.1177 8.41161L30.6596 2.90638C30.7616 2.87948 30.8508 2.81741 30.9116 2.73114C30.9723 2.64486 31.0006 2.53991 30.9915 2.4348C30.9824 2.32968 30.9365 2.23115 30.8619 2.15658C30.7872 2.08201 30.6887 2.03618 30.5835 2.02718L8.02238 0.00175428C7.95073 -0.00460673 7.8786 0.00638803 7.81209 0.0338087C7.74559 0.0612293 7.68666 0.104269 7.64031 0.159284C7.59396 0.214299 7.56155 0.279669 7.54582 0.349864C7.53008 0.420059 7.53149 0.493012 7.54992 0.562547L9.56919 8.09526Z" fill="white"/>
<path d="M11.6162 21.5544L8.6191 10.3693L8.22881 8.917L6.6327 2.95985C6.60637 2.86513 6.54974 2.78164 6.47146 2.72215C6.39319 2.66267 6.29758 2.63046 6.19927 2.63046C6.10096 2.63046 6.00535 2.66267 5.92707 2.72215C5.8488 2.78164 5.79216 2.86513 5.76583 2.95985L0.0141032 24.4344C-0.00534826 24.51 -0.00466779 24.5894 0.0160763 24.6648C0.0368204 24.7401 0.0769057 24.8087 0.132353 24.8637C0.187801 24.9187 0.256681 24.9583 0.332152 24.9785C0.407623 24.9986 0.487059 24.9987 0.562571 24.9787L11.2957 22.1028C11.3531 22.0885 11.4071 22.0629 11.4545 22.0274C11.5019 21.9919 11.5417 21.9473 11.5715 21.8961C11.6014 21.845 11.6207 21.7885 11.6284 21.7298C11.6361 21.6711 11.6319 21.6114 11.6162 21.5544Z" fill="white"/>
<path d="M36.5793 4.02638C36.4152 3.74284 36.1624 3.52121 35.8598 3.39572C35.5572 3.27023 35.2217 3.24786 34.9051 3.33206L10.5055 9.86439C10.3908 9.89519 10.293 9.97027 10.2337 10.0731C10.1744 10.176 10.1584 10.2982 10.1891 10.4129L13.065 21.1665C13.0958 21.2812 13.1709 21.3789 13.2737 21.4383C13.3766 21.4976 13.4988 21.5136 13.6134 21.4829L41.6675 13.9666C41.7338 13.9489 41.7952 13.9163 41.8468 13.8711C41.8985 13.826 41.9391 13.7696 41.9655 13.7062C41.9919 13.6429 42.0034 13.5744 41.9991 13.5059C41.9948 13.4374 41.9748 13.3708 41.9407 13.3113L36.5793 4.02638Z" fill="white"/>
<path d="M12.2389 23.8737C12.2081 23.759 12.133 23.6613 12.0302 23.602C11.9273 23.5426 11.8051 23.5266 11.6904 23.5573L0.949067 26.4332C0.873054 26.4531 0.803612 26.4926 0.747716 26.5479C0.69182 26.6031 0.651438 26.672 0.630623 26.7478C0.609808 26.8236 0.609295 26.9035 0.629134 26.9795C0.648973 27.0555 0.688466 27.125 0.743648 27.1809L16.5137 43.0763C16.5831 43.1471 16.674 43.1928 16.7722 43.2064C16.8704 43.22 16.9704 43.2006 17.0564 43.1512C17.1424 43.1019 17.2095 43.0254 17.2474 42.9338C17.2852 42.8421 17.2916 42.7405 17.2655 42.6449L12.2389 23.8737Z" fill="white"/>
<path d="M40.7617 15.7672L14.008 22.9364C13.9513 22.9514 13.8981 22.9775 13.8515 23.0131C13.8049 23.0487 13.7658 23.0932 13.7364 23.1439C13.707 23.1947 13.6879 23.2507 13.6802 23.3089C13.6725 23.367 13.6764 23.4261 13.6916 23.4828L19.0161 43.3489C19.0377 43.4288 19.081 43.5012 19.1413 43.558C19.2016 43.6149 19.2764 43.6538 19.3575 43.6707C19.4386 43.6875 19.5228 43.6815 19.6007 43.6533C19.6786 43.6251 19.7471 43.5759 19.7987 43.5111L41.2362 16.478C41.2961 16.4037 41.3306 16.3123 41.3349 16.2171C41.3392 16.1218 41.3129 16.0277 41.26 15.9484C41.207 15.8691 41.1302 15.8087 41.0405 15.7762C40.9509 15.7436 40.8532 15.7405 40.7617 15.7672Z" fill="white"/>
</svg>
