<svg width="240" height="100" viewBox="0 0 240 100" fill="none" xmlns="http://www.w3.org/2000/svg">
<mask id="mask0_1_118" style="mask-type:alpha" maskUnits="userSpaceOnUse" x="0" y="0" width="240" height="100">
<rect width="240" height="100" fill="#D9D9D9"/>
</mask>
<g mask="url(#mask0_1_118)">
<path fill-rule="evenodd" clip-rule="evenodd" d="M88.7396 52.393C88.7625 52.3798 88.784 52.365 88.8039 52.3489L89.0394 52.213C89.8503 51.7448 90.3498 50.8795 90.3498 49.9432L90.3499 45.7019C90.35 44.932 89.5166 44.4509 88.8499 44.8358L85.4618 46.7921C85.4406 46.8043 85.4206 46.8179 85.4018 46.8328L52.1803 66.0133L20.4841 47.7135V35.0291L50.5593 52.393C51.5624 52.9721 52.7982 52.9721 53.8013 52.393L88.7396 32.2214C89.7427 31.6423 90.3606 30.572 90.3606 29.4137C90.3606 28.2554 89.7427 27.1851 88.7396 26.606L71.2705 16.5202C70.2674 15.941 69.0315 15.941 68.0284 16.5202L51.3476 26.135C50.6804 26.5196 50.6801 27.4824 51.347 27.8674L55.0214 29.9886C55.8316 30.4564 56.8296 30.4568 57.6402 29.9898L69.6491 23.0713L80.6344 29.4137L52.1803 45.8417L23.7262 29.4137L52.1811 12.9853L55.4706 14.8726C56.2806 15.3374 57.2767 15.3361 58.0854 14.8692L61.7613 12.747C62.4286 12.3618 62.4279 11.3985 61.7601 11.0143L53.8013 6.43436C52.7982 5.85521 51.5624 5.85521 50.5593 6.43436L15.621 26.606C14.6179 27.1851 14 28.2554 14 29.4137V49.5853C14 50.7436 14.6179 51.8139 15.621 52.393L48.9382 71.6287V84.313L18.8631 66.9492C18.8198 66.9241 18.7742 66.9063 18.7279 66.8954L15.5027 65.0202C14.836 64.6326 14 65.1135 14 65.8847L14.0002 70.1562C14.0002 71.0925 14.4997 71.9578 15.3106 72.426L18.9199 74.51C18.9756 74.5421 19.0358 74.5626 19.0974 74.5717L50.5593 92.7362C51.5624 93.3153 52.7982 93.3153 53.8013 92.7362L85.8993 74.2044C85.9178 74.1969 85.9359 74.1883 85.9536 74.1785C85.9563 74.177 85.959 74.1755 85.9616 74.174L89.0465 72.3928C89.8574 71.9246 90.357 71.0594 90.357 70.123L90.3571 65.8817C90.3572 65.1119 89.5238 64.6307 88.8571 65.0157L85.5645 66.9168C85.5417 66.9258 85.5193 66.9366 85.4975 66.9492L55.4224 84.313V71.6287L88.7396 52.393Z" fill="#7333FF"/>
<path fill-rule="evenodd" clip-rule="evenodd" d="M212.537 65.9974C211.873 65.9974 211.335 66.5359 211.335 67.2003L211.335 72.1259L211.335 76.0797C211.335 77.2808 210.361 78.2544 209.16 78.2544C209.149 78.2544 209.141 78.246 209.141 78.2357L209.141 65.2063C209.141 64.2702 209.811 63.5113 210.637 63.5113H223.679C224.505 63.5113 225.174 64.2702 225.174 65.2063V70.5454C225.174 71.4538 224.544 72.1953 223.752 72.2385L225.038 74.3127C225.215 74.5981 225.31 74.9385 225.31 75.2874V77.1873C225.31 77.793 224.819 78.2841 224.213 78.2841C223.608 78.2841 223.117 77.793 223.117 77.1873V75.8803C223.117 75.6562 223.054 75.4367 222.936 75.2463L221.429 72.8168C221.318 72.6377 221.263 72.4386 221.258 72.2405H213.863C213.199 72.2405 212.66 71.7019 212.66 71.0376V70.9573C212.66 70.293 213.199 69.7544 213.863 69.7544H221.778C222.442 69.7544 222.981 69.2158 222.981 68.5515V67.2003C222.981 66.536 222.442 65.9974 221.778 65.9974H212.537ZM152.266 65.3171C152.266 64.3752 152.944 63.6139 153.775 63.6221L166.991 63.7527C167.811 63.7608 168.473 64.5173 168.473 65.4476V71.6838C168.473 72.62 167.803 73.3789 166.978 73.3789H156.924C156.26 73.3789 155.721 72.8403 155.721 72.1759V72.0957C155.721 71.4313 156.26 70.8928 156.924 70.8928L165.077 70.8928C165.741 70.8928 166.28 70.3542 166.28 69.6898V67.4229C166.28 66.7632 165.748 66.2266 165.089 66.22L154.546 66.1159C154.498 66.1154 154.46 66.1537 154.46 66.2011V76.2998C154.46 77.5029 153.484 78.4781 152.281 78.4781C152.273 78.4781 152.266 78.4714 152.266 78.463V65.3171ZM133.163 68.9279L133.163 63.8101C133.163 63.7911 133.179 63.7758 133.198 63.7758C134.39 63.7758 135.357 64.7425 135.357 65.935L135.357 68.4032C135.357 68.4294 135.371 68.4535 135.393 68.4667L141.434 71.9916C141.535 71.7963 141.69 71.6268 141.892 71.5081L146.568 68.7599C146.935 68.5438 147.161 68.1493 147.161 67.7228V64.991C147.161 64.3853 147.652 63.8942 148.258 63.8942C148.864 63.8942 149.355 64.3853 149.355 64.991V68.8798C149.355 69.4989 149.057 70.0689 148.578 70.3664L143.115 73.5869C142.854 73.7405 142.561 73.7838 142.287 73.7328V77.3696C142.287 77.9753 141.796 78.4663 141.19 78.4663C140.584 78.4663 140.093 77.9753 140.093 77.3696V74.6963C140.093 74.2685 139.866 73.8729 139.497 73.6573L133.974 70.4349C133.476 70.1444 133.163 69.5627 133.163 68.9279ZM128.25 66.601C128.25 66.4423 128.121 66.3137 127.963 66.3137L116.895 66.3137C115.55 66.3137 114.46 65.2239 114.46 63.8794C114.46 63.8508 114.483 63.8276 114.512 63.8276L128.952 63.8276C129.794 63.8276 130.443 64.6042 130.443 65.5227L130.443 68.0431C130.443 69.4776 129.562 70.7184 128.325 71.0242L116.832 73.8656C116.603 73.9222 116.44 74.152 116.44 74.4176V74.9781C116.44 75.6425 116.978 76.181 117.642 76.181H129.407C129.876 76.181 130.255 76.5606 130.255 77.0288V77.4642C130.255 78.1285 129.717 78.6671 129.052 78.6671H115.742C114.916 78.6671 114.246 77.9082 114.246 76.9721V74.4176C114.246 72.9831 115.128 71.7423 116.364 71.4366L127.858 68.5952C128.087 68.5386 128.25 68.3088 128.25 68.0431L128.25 66.601ZM171.247 63.921V70.7587V71.2349V77.3699C171.247 77.9756 171.739 78.4666 172.344 78.4666C172.95 78.4666 173.441 77.9756 173.441 77.3699V72.93H185.206V77.3689C185.206 77.9746 185.697 78.4657 186.303 78.4657C186.909 78.4657 187.4 77.9746 187.4 77.3689V71.2868L187.4 71.2709C187.4 71.2589 187.4 71.2469 187.4 71.2349V64.991C187.4 64.3853 186.909 63.8942 186.304 63.8942C185.698 63.8942 185.207 64.3853 185.207 64.991V69.2409C185.207 69.9053 184.668 70.4439 184.004 70.4439H173.521C173.477 70.4439 173.441 70.4081 173.441 70.364V66.0609C173.441 64.8643 172.471 63.8942 171.274 63.8942C171.259 63.8942 171.247 63.9062 171.247 63.921ZM190.179 65.3784C190.179 64.4422 190.849 63.6833 191.675 63.6833H206.12C206.135 63.6833 206.147 63.6955 206.147 63.7106C206.147 65.0686 205.047 66.1694 203.689 66.1694H192.524C192.441 66.1694 192.373 66.2372 192.373 66.3208V70.0879C192.559 69.9693 192.781 69.9007 193.018 69.9007L203.673 69.9007C204.337 69.9007 204.876 70.4392 204.876 71.1036V71.1838C204.876 71.8482 204.337 72.3868 203.673 72.3868L193.018 72.3868C192.781 72.3868 192.559 72.3181 192.373 72.1995V75.9635C192.373 76.049 192.442 76.1183 192.528 76.1183H203.689C205.047 76.1183 206.147 77.2188 206.147 78.5764C206.147 78.5919 206.135 78.6044 206.119 78.6044H191.675C190.849 78.6044 190.179 77.8455 190.179 76.9093V65.3784Z" fill="white"/>
<path d="M119.82 53.9495C118.798 53.9495 117.854 53.7018 116.987 53.2063C116.151 52.7108 115.485 52.0449 114.989 51.2088C114.494 50.3417 114.246 49.3971 114.246 48.3752V26.0778C114.246 25.0558 114.494 24.1267 114.989 23.2906C115.485 22.4235 116.151 21.7422 116.987 21.2467C117.854 20.7512 118.798 20.5034 119.82 20.5034H142.118C143.14 20.5034 144.069 20.7512 144.905 21.2467C145.772 21.7422 146.453 22.4235 146.949 23.2906C147.444 24.1267 147.692 25.0558 147.692 26.0778V27.4249H143.93V26.0778C143.93 25.5823 143.744 25.1642 143.372 24.8235C143.031 24.4519 142.613 24.2661 142.118 24.2661H119.82C119.325 24.2661 118.891 24.4519 118.52 24.8235C118.179 25.1642 118.009 25.5823 118.009 26.0778V48.3752C118.009 48.8707 118.179 49.3042 118.52 49.6758C118.891 50.0165 119.325 50.1868 119.82 50.1868H142.118C142.613 50.1868 143.031 50.0165 143.372 49.6758C143.744 49.3042 143.93 48.8707 143.93 48.3752V40.1065H135.661V36.2974H147.692V48.3752C147.692 49.3971 147.444 50.3417 146.949 51.2088C146.453 52.0449 145.772 52.7108 144.905 53.2063C144.069 53.7018 143.14 53.9495 142.118 53.9495H119.82Z" fill="white"/>
<path d="M158.148 53.9495C157.126 53.9495 156.181 53.7018 155.314 53.2063C154.478 52.7108 153.812 52.0449 153.317 51.2088C152.821 50.3417 152.573 49.3971 152.573 48.3752V47.0745H156.336V48.3752C156.336 48.8707 156.506 49.3042 156.847 49.6758C157.219 50.0165 157.652 50.1868 158.148 50.1868H180.445C180.941 50.1868 181.359 50.0165 181.699 49.6758C182.071 49.3042 182.257 48.8707 182.257 48.3752V40.8962C182.257 40.4007 182.071 39.9827 181.699 39.642C181.359 39.3014 180.941 39.131 180.445 39.131H158.148C157.126 39.131 156.181 38.8833 155.314 38.3878C154.478 37.8613 153.812 37.18 153.317 36.3439C152.821 35.5077 152.573 34.5786 152.573 33.5567V26.0778C152.573 25.0558 152.821 24.1267 153.317 23.2906C153.812 22.4235 154.478 21.7422 155.314 21.2467C156.181 20.7512 157.126 20.5034 158.148 20.5034H180.445C181.467 20.5034 182.396 20.7512 183.232 21.2467C184.099 21.7422 184.781 22.4235 185.276 23.2906C185.772 24.1267 186.019 25.0558 186.019 26.0778V27.3784H182.257V26.0778C182.257 25.5823 182.071 25.1642 181.699 24.8235C181.359 24.4519 180.941 24.2661 180.445 24.2661H158.148C157.652 24.2661 157.219 24.4519 156.847 24.8235C156.506 25.1642 156.336 25.5823 156.336 26.0778V33.5567C156.336 34.0522 156.506 34.4703 156.847 34.8109C157.219 35.1516 157.652 35.3219 158.148 35.3219H180.445C181.467 35.3219 182.396 35.5851 183.232 36.1116C184.099 36.6071 184.781 37.2729 185.276 38.1091C185.772 38.9452 186.019 39.8743 186.019 40.8962V48.3752C186.019 49.3971 185.772 50.3417 185.276 51.2088C184.781 52.0449 184.099 52.7108 183.232 53.2063C182.396 53.7018 181.467 53.9495 180.445 53.9495H158.148Z" fill="white"/>
<path d="M196.577 53.9495C195.555 53.9495 194.61 53.7018 193.743 53.2063C192.907 52.7108 192.241 52.0449 191.746 51.2088C191.25 50.3417 191.002 49.3971 191.002 48.3752V26.0778C191.002 25.0558 191.25 24.1267 191.746 23.2906C192.241 22.4235 192.907 21.7422 193.743 21.2467C194.61 20.7512 195.555 20.5034 196.577 20.5034H224.355V24.2661H196.577C196.081 24.2661 195.648 24.4519 195.276 24.8235C194.935 25.1642 194.765 25.5823 194.765 26.0778V48.3752C194.765 48.8707 194.935 49.3042 195.276 49.6758C195.648 50.0165 196.081 50.1868 196.577 50.1868H224.355V53.9495H196.577Z" fill="white"/>
</g>
</svg>
