<svg width="109" height="44" viewBox="0 0 109 44" fill="none" xmlns="http://www.w3.org/2000/svg">
<path d="M70.125 17.625C69.6417 16.6083 68.9417 15.825 68.025 15.275C67.1083 14.7083 66.0417 14.425 64.825 14.425C63.6083 14.425 62.5083 14.7083 61.525 15.275C60.5583 15.825 59.7917 16.625 59.225 17.675C58.675 18.7083 58.4 19.9083 58.4 21.275C58.4 22.6417 58.675 23.8417 59.225 24.875C59.7917 25.9083 60.5583 26.7083 61.525 27.275C62.5083 27.825 63.6083 28.1 64.825 28.1C66.525 28.1 67.925 27.5917 69.025 26.575C70.125 25.5583 70.7667 24.1833 70.95 22.45H64V20.6H73.375V22.35C73.2417 23.7833 72.7917 25.1 72.025 26.3C71.2583 27.4833 70.25 28.425 69 29.125C67.75 29.8083 66.3583 30.15 64.825 30.15C63.2083 30.15 61.7333 29.775 60.4 29.025C59.0667 28.2583 58.0083 27.2 57.225 25.85C56.4583 24.5 56.075 22.975 56.075 21.275C56.075 19.575 56.4583 18.05 57.225 16.7C58.0083 15.3333 59.0667 14.275 60.4 13.525C61.7333 12.7583 63.2083 12.375 64.825 12.375C66.675 12.375 68.3083 12.8333 69.725 13.75C71.1583 14.6667 72.2 15.9583 72.85 17.625H70.125ZM81.908 30.175C80.758 30.175 79.7247 29.975 78.808 29.575C77.908 29.1583 77.1997 28.5917 76.683 27.875C76.1663 27.1417 75.8997 26.3 75.883 25.35H78.308C78.3913 26.1667 78.7247 26.8583 79.308 27.425C79.908 27.975 80.7747 28.25 81.908 28.25C82.9913 28.25 83.8413 27.9833 84.458 27.45C85.0913 26.9 85.408 26.2 85.408 25.35C85.408 24.6833 85.2247 24.1417 84.858 23.725C84.4913 23.3083 84.033 22.9917 83.483 22.775C82.933 22.5583 82.1913 22.325 81.258 22.075C80.108 21.775 79.183 21.475 78.483 21.175C77.7997 20.875 77.208 20.4083 76.708 19.775C76.2247 19.125 75.983 18.2583 75.983 17.175C75.983 16.225 76.2247 15.3833 76.708 14.65C77.1913 13.9167 77.8663 13.35 78.733 12.95C79.6163 12.55 80.6247 12.35 81.758 12.35C83.3913 12.35 84.7247 12.7583 85.758 13.575C86.808 14.3917 87.3997 15.475 87.533 16.825H85.033C84.9497 16.1583 84.5997 15.575 83.983 15.075C83.3663 14.5583 82.5497 14.3 81.533 14.3C80.583 14.3 79.808 14.55 79.208 15.05C78.608 15.5333 78.308 16.2167 78.308 17.1C78.308 17.7333 78.483 18.25 78.833 18.65C79.1997 19.05 79.6413 19.3583 80.158 19.575C80.6913 19.775 81.433 20.0083 82.383 20.275C83.533 20.5917 84.458 20.9083 85.158 21.225C85.858 21.525 86.458 22 86.958 22.65C87.458 23.2833 87.708 24.15 87.708 25.25C87.708 26.1 87.483 26.9 87.033 27.65C86.583 28.4 85.9163 29.0083 85.033 29.475C84.1497 29.9417 83.108 30.175 81.908 30.175ZM90.2059 21.275C90.2059 19.575 90.5892 18.05 91.3559 16.7C92.1225 15.3333 93.1642 14.2667 94.4809 13.5C95.8142 12.7333 97.2892 12.35 98.9059 12.35C100.806 12.35 102.464 12.8083 103.881 13.725C105.298 14.6417 106.331 15.9417 106.981 17.625H104.256C103.773 16.575 103.073 15.7667 102.156 15.2C101.256 14.6333 100.173 14.35 98.9059 14.35C97.6892 14.35 96.5975 14.6333 95.6309 15.2C94.6642 15.7667 93.9059 16.575 93.3559 17.625C92.8059 18.6583 92.5309 19.875 92.5309 21.275C92.5309 22.6583 92.8059 23.875 93.3559 24.925C93.9059 25.9583 94.6642 26.7583 95.6309 27.325C96.5975 27.8917 97.6892 28.175 98.9059 28.175C100.173 28.175 101.256 27.9 102.156 27.35C103.073 26.7833 103.773 25.975 104.256 24.925H106.981C106.331 26.5917 105.298 27.8833 103.881 28.8C102.464 29.7 100.806 30.15 98.9059 30.15C97.2892 30.15 95.8142 29.775 94.4809 29.025C93.1642 28.2583 92.1225 27.2 91.3559 25.85C90.5892 24.5 90.2059 22.975 90.2059 21.275Z" fill="white"/>
<path d="M9.56919 8.09526C9.59999 8.20993 9.67508 8.30767 9.77793 8.36699C9.88078 8.42631 10.003 8.44236 10.1177 8.41161L30.6596 2.90638C30.7616 2.87948 30.8508 2.81741 30.9116 2.73114C30.9723 2.64486 31.0006 2.53991 30.9915 2.4348C30.9824 2.32968 30.9365 2.23115 30.8619 2.15658C30.7872 2.08201 30.6887 2.03618 30.5835 2.02718L8.02238 0.00175428C7.95073 -0.00460673 7.8786 0.00638803 7.81209 0.0338087C7.74559 0.0612293 7.68666 0.104269 7.64031 0.159284C7.59396 0.214299 7.56155 0.279669 7.54582 0.349864C7.53008 0.420059 7.53149 0.493012 7.54992 0.562547L9.56919 8.09526Z" fill="white"/>
<path d="M11.6162 21.5544L8.6191 10.3693L8.22881 8.91703L6.6327 2.95988C6.60637 2.86516 6.54974 2.78167 6.47146 2.72219C6.39319 2.6627 6.29758 2.63049 6.19927 2.63049C6.10096 2.63049 6.00535 2.6627 5.92707 2.72219C5.8488 2.78167 5.79216 2.86516 5.76583 2.95988L0.0141032 24.4344C-0.00534826 24.51 -0.00466779 24.5895 0.0160763 24.6648C0.0368204 24.7401 0.0769057 24.8087 0.132353 24.8637C0.187801 24.9188 0.256681 24.9583 0.332152 24.9785C0.407623 24.9987 0.487059 24.9988 0.562571 24.9787L11.2957 22.1029C11.3531 22.0886 11.4071 22.0629 11.4545 22.0274C11.5019 21.9919 11.5417 21.9473 11.5715 21.8962C11.6014 21.8451 11.6207 21.7885 11.6284 21.7298C11.6361 21.6711 11.6319 21.6115 11.6162 21.5544Z" fill="white"/>
<path d="M36.5793 4.02635C36.4152 3.74281 36.1624 3.52118 35.8598 3.39569C35.5572 3.2702 35.2217 3.24783 34.9051 3.33203L10.5055 9.86435C10.3908 9.89516 10.293 9.97024 10.2337 10.0731C10.1744 10.1759 10.1584 10.2981 10.1891 10.4128L13.065 21.1665C13.0958 21.2812 13.1709 21.3789 13.2737 21.4382C13.3766 21.4976 13.4988 21.5136 13.6134 21.4829L41.6675 13.9666C41.7338 13.9489 41.7952 13.9162 41.8468 13.8711C41.8985 13.8259 41.9391 13.7695 41.9655 13.7062C41.9919 13.6429 42.0034 13.5743 41.9991 13.5059C41.9948 13.4374 41.9748 13.3708 41.9407 13.3113L36.5793 4.02635Z" fill="white"/>
<path d="M12.2389 23.8737C12.2081 23.759 12.133 23.6613 12.0302 23.602C11.9273 23.5426 11.8051 23.5266 11.6904 23.5573L0.949067 26.4332C0.873054 26.4531 0.803612 26.4926 0.747716 26.5479C0.69182 26.6031 0.651438 26.672 0.630623 26.7478C0.609808 26.8236 0.609295 26.9035 0.629134 26.9795C0.648973 27.0555 0.688466 27.125 0.743648 27.1809L16.5137 43.0763C16.5831 43.1471 16.674 43.1928 16.7722 43.2064C16.8704 43.22 16.9704 43.2006 17.0564 43.1512C17.1424 43.1019 17.2095 43.0254 17.2474 42.9338C17.2852 42.8421 17.2916 42.7405 17.2655 42.6449L12.2389 23.8737Z" fill="white"/>
<path d="M40.7617 15.7672L14.008 22.9364C13.9513 22.9514 13.8981 22.9775 13.8515 23.0131C13.8049 23.0487 13.7658 23.0932 13.7364 23.1439C13.707 23.1947 13.6879 23.2507 13.6802 23.3089C13.6725 23.367 13.6764 23.4261 13.6916 23.4828L19.0161 43.3489C19.0377 43.4288 19.081 43.5012 19.1413 43.558C19.2016 43.6149 19.2764 43.6538 19.3575 43.6707C19.4386 43.6875 19.5228 43.6815 19.6007 43.6533C19.6786 43.6251 19.7471 43.5759 19.7987 43.5111L41.2362 16.478C41.2961 16.4037 41.3306 16.3123 41.3349 16.2171C41.3392 16.1218 41.3129 16.0277 41.26 15.9484C41.207 15.8691 41.1302 15.8087 41.0405 15.7762C40.9509 15.7436 40.8532 15.7405 40.7617 15.7672Z" fill="white"/>
</svg>
