<svg width="161" height="60" viewBox="0 0 161 60" fill="none" xmlns="http://www.w3.org/2000/svg">
<g clip-path="url(#clip0_782_632)">
<path fill-rule="evenodd" clip-rule="evenodd" d="M95.7347 25.9172C97.4782 25.9318 99.0763 26.5751 100.297 27.6422L100.311 21.3269H102.81L102.752 40.0975H100.253V38.5918C99.0182 39.6443 97.4346 40.2876 95.7057 40.2876H95.6911C91.7975 40.2729 88.6448 37.0422 88.6593 33.0805C88.6738 29.1188 91.8265 25.9172 95.7202 25.9172H95.7347ZM92.3496 36.5451C93.2503 37.4661 94.4417 37.9778 95.7202 37.9778C98.3354 37.9778 100.471 35.7996 100.486 33.1243C100.486 31.8086 99.9916 30.5806 99.0908 29.6596C98.1901 28.7387 96.9987 28.227 95.7347 28.227H95.7202C93.1051 28.227 90.9693 30.4052 90.9548 33.0805C90.9548 34.3962 91.4488 35.6241 92.3496 36.5451ZM56.5365 40.1121H53.8633V21.3415H65.1811V24.0314H56.5365V28.6217H64.9631V31.0923H56.5365V40.1121ZM76.3245 27.6861C77.2543 26.5897 78.7798 25.9318 80.407 25.9318C83.8794 25.9318 86.0441 28.1393 86.0296 31.7063V40.1121H83.4871V32.1449C83.4871 29.6158 82.0924 28.0954 79.7678 28.0954C77.4141 28.0954 76.0194 29.6158 76.0194 32.1449V40.1121H73.4478V26.1657H76.0194V28.0662L76.3245 27.6861ZM142.502 26.1657V27.6276C141.267 26.5605 139.684 25.9172 137.94 25.9172C134.047 25.9172 130.879 29.1334 130.879 33.1097C130.879 37.0714 134.032 40.3022 137.94 40.3022C139.684 40.3022 141.267 39.6589 142.502 38.5918V40.0975H145.001V26.1657H142.502ZM137.94 37.9778C135.311 37.9778 133.175 35.785 133.175 33.1097C133.175 30.4198 135.311 28.2416 137.94 28.2416C140.57 28.2416 142.706 30.4345 142.706 33.1097C142.706 35.7996 140.57 37.9778 137.94 37.9778ZM112.399 25.9318C108.505 25.9318 105.338 29.148 105.338 33.1243C105.338 37.086 108.491 40.3168 112.399 40.3168C116.293 40.3168 119.46 37.1006 119.46 33.1243C119.46 29.148 116.293 25.9318 112.399 25.9318ZM112.399 37.9778C109.769 37.9778 107.634 35.7849 107.634 33.1097C107.634 30.4198 109.769 28.2416 112.399 28.2416C115.029 28.2416 117.164 30.4344 117.164 33.1097C117.164 35.7996 115.029 37.9778 112.399 37.9778ZM67.68 37.6415V34.0161V26.1219H70.3823V40.0683H67.68V37.6415ZM67.68 22.7303V23.432V24.0314H70.3823V21.3415H67.68V22.7303ZM124.69 28.7533C125.083 27.7153 126.245 26.0342 129.078 26.0342C129.1 26.0342 129.127 26.034 129.157 26.0338C129.4 26.0322 129.867 26.0291 130.022 26.1073V28.2708C130.022 28.2708 128.148 27.9492 126.594 28.9725C124.894 30.0836 124.69 31.6186 124.69 32.9343V40.0683H121.988V36.9544V33.329V26.195H124.69V28.7533Z" fill="#120042"/>
<path fill-rule="evenodd" clip-rule="evenodd" d="M22.7697 20.6252C22.8133 20.8006 22.9877 20.903 23.162 20.8445L37.6906 16.9266C38.0393 16.8389 37.9957 16.3272 37.6325 16.298L21.6801 14.8507C21.4621 14.8361 21.2878 15.0408 21.3459 15.2455L22.7697 20.6252ZM24.2226 30.2005L22.1014 22.2333L21.8254 21.1953L20.6921 16.9558C20.605 16.6342 20.1691 16.6342 20.0819 16.9558L16.0139 32.2326C15.9558 32.4665 16.1592 32.6857 16.4062 32.6273L24.0047 30.5806C24.1645 30.5514 24.2662 30.376 24.2226 30.2005ZM40.6981 17.219C41.1484 17.102 41.6424 17.3067 41.8749 17.716L45.6668 24.3384C45.7685 24.5138 45.6814 24.7477 45.478 24.8062L25.6464 30.1274C25.4721 30.1859 25.2977 30.0836 25.2541 29.9082L23.2201 22.2625C23.162 22.0871 23.2637 21.9117 23.438 21.8678L40.6981 17.219ZM24.6584 31.8525C24.6148 31.677 24.4405 31.5747 24.2662 31.6332L16.6677 33.6798C16.4352 33.7383 16.3481 34.0453 16.5224 34.2061L27.6804 45.5211C27.9128 45.755 28.2906 45.5357 28.2179 45.2141L24.6584 31.8525ZM25.9079 31.18L44.8242 26.078C45.1293 26.0049 45.3472 26.3412 45.1583 26.5897L30.005 45.8281C29.8452 46.0328 29.5255 45.9597 29.4529 45.7112L25.69 31.5747C25.6319 31.3993 25.7336 31.2239 25.9079 31.18Z" fill="#120042"/>
</g>
<defs>
<clipPath id="clip0_782_632">
<rect width="161" height="60" fill="white"/>
</clipPath>
</defs>
</svg>
